<svg width="39" height="35" viewBox="0 0 39 35" fill="none" xmlns="http://www.w3.org/2000/svg">
<path d="M35.3477 31.2637C35.3374 31.3326 35.3065 31.3968 35.2589 31.4481C35.2114 31.4994 35.1494 31.5354 35.0809 31.5514C35.0125 31.5675 34.9407 31.5629 34.875 31.5381C34.8092 31.5134 34.7524 31.4697 34.712 31.4128C34.3997 30.9622 34.0095 30.5698 33.5593 30.2536C32.3998 29.4474 30.8929 29.215 29.0823 29.563C27.8109 29.8064 26.4258 30.2153 25.0862 30.6096C21.8862 31.5539 18.578 32.5293 16.5768 31.3349C15.7671 30.8536 15.2138 30.0571 14.8935 28.901V28.8919C14.8652 28.7909 14.8392 28.6868 14.8154 28.5798C14.7671 28.3176 14.759 28.0497 14.7914 27.7851L14.7957 27.745C14.8314 27.5703 14.8714 27.3963 14.9187 27.2235C15.5853 24.6679 17.2154 22.462 19.4743 21.0589C21.7331 19.6559 24.4491 19.1623 27.0643 19.6794C29.6794 20.1966 31.9951 21.6854 33.5357 23.8398C35.0763 25.9943 35.7247 28.6508 35.3477 31.2637Z" fill="url(#paint0_radial_377_384)"/>
<path d="M38.6127 13.9306C38.6166 16.0977 38.0668 18.2298 37.0156 20.1249C36.9142 20.3071 36.7704 20.4622 36.5962 20.5769C36.4221 20.6915 36.2228 20.7625 36.0154 20.7836C35.808 20.8047 35.5985 20.7754 35.4048 20.6981C35.2112 20.6209 35.039 20.498 34.9031 20.3399C32.8374 17.927 29.9937 16.3116 26.8634 15.773C23.7331 15.2344 20.513 15.8064 17.7597 17.3901C15.0064 18.9739 12.893 21.4698 11.7847 24.4465C10.6765 27.4232 10.6431 30.6936 11.6904 33.6923C11.7283 33.8029 11.7301 33.9228 11.6957 34.0345C11.6612 34.1463 11.5921 34.2443 11.4985 34.3143C11.4048 34.3844 11.2913 34.4229 11.1744 34.4244C11.0574 34.4259 10.943 34.3902 10.8476 34.3225C6.17173 30.9103 3.1145 25.4156 3.04632 19.1973C3.00035 15.3389 4.14044 11.5595 6.3124 8.37017C6.36532 8.29282 6.38827 8.19885 6.37696 8.10582C6.36566 8.01278 6.32087 7.92705 6.25097 7.86462C4.83167 6.60351 2.99833 5.90808 1.09969 5.91062H1.05915C0.0161136 5.91554 -0.397906 4.57397 0.47006 3.99471C2.208 2.84362 4.18806 2.109 6.25621 1.84797C8.32437 1.58695 10.4249 1.80657 12.3943 2.48974C12.4469 2.50796 12.5028 2.51465 12.5583 2.50935C12.6137 2.50405 12.6674 2.48689 12.7156 2.45903C15.468 0.89984 18.5673 0.0553135 21.7303 0.0026262C24.8933 -0.0500611 28.019 0.690771 30.8218 2.15742C32.6626 3.12283 34.3328 4.38321 35.7661 5.88851L35.8054 5.93274C37.6277 8.19952 38.6184 11.0221 38.6127 13.9306Z" fill="url(#paint1_angular_377_384)"/>
<defs>
<radialGradient id="paint0_radial_377_384" cx="0" cy="0" r="1" gradientUnits="userSpaceOnUse" gradientTransform="translate(32 25) rotate(168.111) scale(9.70824 15.5642)">
<stop offset="0.192708" stop-color="#9BF4D5"/>
<stop offset="1" stop-color="#53D2DB"/>
</radialGradient>
<radialGradient id="paint1_angular_377_384" cx="0" cy="0" r="1" gradientUnits="userSpaceOnUse" gradientTransform="translate(19.3063 17.2122) rotate(90) scale(17.2122 19.3063)">
<stop stop-color="#5D90DE"/>
<stop offset="0.276042" stop-color="#5D90DE"/>
<stop offset="1" stop-color="#9BF4D5"/>
</radialGradient>
</defs>
</svg>
